<svg xmlns="http://www.w3.org/2000/svg" xmlns:xlink="http://www.w3.org/1999/xlink" width="148px" height="44px" viewBox="1 0 148 44" version="1.1">
    <defs>
        <linearGradient x1="50%" y1="21.9564606%" x2="50%" y2="100%" id="linearGradient-1">
            <stop stop-color="#FFFFFF" stop-opacity="0.1" offset="0%"/>
            <stop stop-color="#FFFFFF" stop-opacity="0" offset="100%"/>
        </linearGradient>
        <path d="M74.9018712,6.72721754 L75.5948712,6.72721754 C75.7297414,6.72721754 75.8681966,6.71932631 76.0102408,6.70354362 C76.152285,6.68776094 76.2806967,6.65476126 76.3954799,6.60454362 C76.5102631,6.55432598 76.6042404,6.48187018 76.6774147,6.38717405 C76.750589,6.29247792 76.7871756,6.16621831 76.7871756,6.00839143 C76.7871756,5.93378236 76.7713931,5.82904428 76.7398278,5.69417404 C76.7082624,5.55930379 76.6666541,5.41008789 76.6150017,5.24652185 C76.5633492,5.08295581 76.5023716,4.91365316 76.4320669,4.7386088 C76.3617622,4.56356444 76.2878716,4.40000086 76.210393,4.24791314 L77.2046973,3.75721747 C77.2764368,3.92078351 77.3481752,4.09439047 77.4199147,4.27804357 C77.4916542,4.46169667 77.5555014,4.6503687 77.6114582,4.84406532 C77.667415,5.03776195 77.7126102,5.23217305 77.7470452,5.42730447 C77.7814801,5.62243588 77.7986973,5.81326006 77.7986973,5.99978274 C77.7986973,6.32117566 77.7441761,6.59736855 77.6351321,6.82836971 C77.5260881,7.05937087 77.3740027,7.24876029 77.1788712,7.39654364 C76.9837398,7.54432699 76.75059,7.65336938 76.4794147,7.72367408 C76.2082394,7.79397878 75.910525,7.8291306 75.5862625,7.8291306 L74.9018712,7.8291306 L74.9018712,6.72721754 Z M77.101393,2.29804353 L76.2749582,3.12447833 L75.4528277,2.29804353 L76.2749582,1.47591308 L77.101393,2.29804353 Z M70.0896102,6.72721754 C70.3076983,6.75591333 70.544435,6.77313055 70.7998276,6.77886971 C70.8773063,6.78173929 70.9547838,6.78317406 71.0322624,6.78317406 C71.2101763,6.78317406 71.4103265,6.77456545 71.6327189,6.75734797 C71.8551114,6.74013049 72.0889786,6.70569606 72.3343277,6.65404362 C72.5796767,6.60239119 72.8013484,6.53137016 72.9993494,6.4409784 C73.1973504,6.35058664 73.3616314,6.23867472 73.4921972,6.10523926 C73.6227631,5.97180381 73.7023928,5.81326191 73.7310886,5.62960882 C73.7081319,5.49760815 73.652176,5.38067454 73.563219,5.27880446 C73.474262,5.17693439 73.3673718,5.09371782 73.2425451,5.02915228 C73.1177184,4.96458674 72.9850023,4.91939154 72.8443929,4.89356532 C72.7697838,4.882087 72.6966106,4.87634793 72.6248711,4.87634793 C72.56461,4.87634793 72.5043497,4.88065224 72.4440885,4.88926098 C72.1686089,4.93804383 71.9153723,5.01839085 71.6843711,5.13030446 C71.45337,5.24221806 71.2410243,5.37852105 71.0473276,5.53921751 C70.853631,5.69991397 70.6778719,5.88141216 70.520045,6.08371752 C70.3622181,6.28602289 70.2187413,6.50052075 70.0896102,6.72721754 Z M66.5815667,6.72721754 L66.7020884,6.72721754 C66.9115677,6.72721754 67.0866094,6.69637002 67.2272188,6.63467406 C67.3678283,6.57297809 67.4854793,6.48904415 67.5801754,6.3828697 C67.6748715,6.27669526 67.7516316,6.15330518 67.810458,6.01269578 C67.8692844,5.87208638 67.9202186,5.72430525 67.9632623,5.56934795 C68.006306,5.41439065 68.0471969,5.25584875 68.0859363,5.0937175 C68.1246756,4.93158625 68.1727403,4.77447912 68.2301319,4.6223914 L69.2287406,4.95382619 C69.1971753,5.02269611 69.1699147,5.08654329 69.146958,5.14536968 C69.1240014,5.20419606 69.1053494,5.26373894 69.0910015,5.32400012 C69.0766536,5.38426129 69.0658928,5.44739109 69.0587189,5.51339142 C69.0515449,5.57939176 69.047958,5.65256494 69.047958,5.73291317 C69.047958,5.7845656 69.0522623,5.83836941 69.0608711,5.89432621 C69.0694798,5.95028302 69.0816753,6.00480421 69.097458,6.05789144 C69.1132407,6.11097866 69.1326101,6.16119555 69.1555667,6.20854361 C69.1785234,6.25589168 69.2043492,6.29678257 69.233045,6.33121753 C69.2846974,6.23365182 69.3463924,6.12389205 69.4181319,6.00193491 C69.4898714,5.87997778 69.573088,5.75156602 69.6677841,5.61669577 C69.7624802,5.48182553 69.8679357,5.34337039 69.9841537,5.2013262 C70.1003717,5.05928201 70.2273487,4.92082687 70.3650885,4.78595663 C70.5286545,4.63960806 70.7001093,4.50545723 70.8794581,4.3835001 C71.0588068,4.26154296 71.2438919,4.15608749 71.4347189,4.06713052 C71.625546,3.97817355 71.8228266,3.90930468 72.0265668,3.86052182 C72.2303069,3.81173897 72.4369136,3.78734791 72.6463929,3.78734791 C72.9132638,3.78734791 73.1700873,3.83613003 73.4168712,3.93369574 C73.663655,4.03126144 73.8795876,4.16612966 74.0646755,4.33830444 C74.2497634,4.51047922 74.3953924,4.71134678 74.5015668,4.94091315 C74.5933934,5.15039246 74.639306,5.37421632 74.639306,5.61239143 L74.639306,5.68986969 C74.6106102,6.0830021 74.4872201,6.42878126 74.269132,6.72721754 L75.0740451,6.72721754 L75.0740451,7.8291306 L73.9032625,7.8291306 C73.5962175,7.8291306 73.3472852,7.82123938 73.1564581,7.80545669 C72.9656311,7.789674 72.8070892,7.75739172 72.6808277,7.70860886 C72.3766522,7.78895709 72.0731987,7.8427609 71.7704581,7.87002191 C71.4677174,7.89728292 71.1814812,7.91091321 70.9117407,7.91091321 C70.5186083,7.91091321 70.1871768,7.89513076 69.9174363,7.86356539 C69.6476958,7.83200001 69.420285,7.78465266 69.2351972,7.72152191 C69.0501093,7.65839115 68.8958717,7.5794789 68.7724798,7.48478277 C68.6490878,7.39008664 68.5371759,7.27960948 68.4367406,7.15334798 C68.2129134,7.39726225 67.9611116,7.57086921 67.6813276,7.67417408 C67.4015435,7.77747895 67.0823076,7.8291306 66.7236101,7.8291306 L66.5815667,7.8291306 L66.5815667,6.72721754 Z M66.5901754,7.8291306 C66.3520002,7.8291306 66.1360676,7.80904385 65.942371,7.76886973 C65.7486744,7.72869562 65.5729153,7.66484843 65.4150884,7.57732625 C65.2572615,7.48980407 65.1166542,7.37789215 64.9932623,7.24158711 C64.8698704,7.10528208 64.760828,6.94100111 64.6661318,6.74873928 C63.8769974,7.4776125 62.6961831,7.84204365 61.1236535,7.84204365 C60.2254751,7.83630449 59.4829825,7.72510995 58.8961535,7.50845668 C58.3093244,7.29180342 57.8767418,6.95821979 57.5983926,6.50769579 C57.4778702,6.29247732 57.3946536,6.06865347 57.3487404,5.83621752 C57.3143054,5.66691232 57.2970882,5.49760966 57.2970882,5.32830446 C57.2970882,5.26230413 57.3021099,5.15469651 57.3121534,5.00547837 C57.3221969,4.85626023 57.3630878,4.66902297 57.4348273,4.44376097 C57.5065668,4.21849897 57.6012615,4.00543587 57.7189143,3.8045653 L58.5496534,4.3253914 C58.4664356,4.46313122 58.3975668,4.60086898 58.3430447,4.7386088 C58.2885227,4.87634862 58.2540883,5.01408638 58.2397404,5.1518262 C58.2340012,5.20347863 58.2311317,5.25513029 58.2311317,5.30678272 C58.2311317,5.39287011 58.2418925,5.49186912 58.2634143,5.60378273 C58.2849362,5.71569634 58.33874,5.83908641 58.4248274,5.97395665 C58.5051756,6.10882689 58.6271309,6.22360836 58.7906969,6.31830448 C58.954263,6.41300061 59.1529784,6.4904781 59.3868491,6.55073927 C59.6207199,6.61100044 59.8839998,6.65547826 60.176697,6.68417406 C60.4693941,6.71286985 60.7850431,6.72721754 61.1236535,6.72721754 C61.4306985,6.72721754 61.7219565,6.71573939 61.9974361,6.69278275 C62.2729158,6.66982612 62.5290219,6.63323953 62.7657622,6.58302188 C63.0025025,6.53280424 63.2170004,6.46823967 63.4092622,6.38932623 C63.6015241,6.31041279 63.7665224,6.21356593 63.9042623,6.09878274 C64.0305238,6.00121703 64.1323923,5.88787034 64.209871,5.75873926 C64.2873496,5.62960817 64.3519142,5.49402257 64.4035666,5.35197838 C64.455219,5.20993419 64.4982621,5.0643052 64.5326971,4.91508706 C64.567132,4.76586892 64.604436,4.62239209 64.6446101,4.48465227 L65.6346101,4.75152184 C65.5800881,4.90360956 65.5370451,5.05856454 65.5054797,5.21639142 C65.4767839,5.3598704 65.4624362,5.49904292 65.4624362,5.63391317 L65.4624362,5.77380447 C65.4624362,5.85271791 65.482523,5.95602123 65.5226971,6.08371752 C65.5628712,6.21141382 65.6274358,6.32332574 65.7163927,6.41945666 C65.8053497,6.51558758 65.9222833,6.59091291 66.0671971,6.64543493 C66.2121109,6.69995694 66.3893047,6.72721754 66.5987841,6.72721754 L66.7537406,6.72721754 L66.7537406,7.8291306 L66.5901754,7.8291306 Z M62.0792187,9.22804368 L61.2527839,10.0544785 L60.4306535,9.22804368 L61.2527839,8.40591323 L62.0792187,9.22804368 Z M50.5048272,6.72721754 L51.1978272,6.72721754 C51.3326974,6.72721754 51.4711526,6.71932631 51.6131968,6.70354362 C51.755241,6.68776094 51.8836527,6.65476126 51.9984359,6.60454362 C52.1132191,6.55432598 52.2071964,6.48187018 52.2803707,6.38717405 C52.353545,6.29247792 52.3901316,6.16621831 52.3901316,6.00839143 C52.3901316,5.93378236 52.3743491,5.82904428 52.3427837,5.69417404 C52.3112184,5.55930379 52.2696101,5.41008789 52.2179577,5.24652185 C52.1663052,5.08295581 52.1053276,4.91365316 52.0350229,4.7386088 C51.9647182,4.56356444 51.8908276,4.40000086 51.8133489,4.24791314 L52.8076533,3.75721747 C52.8793928,3.92078351 52.9511312,4.09439047 53.0228707,4.27804357 C53.0946102,4.46169667 53.1584574,4.6503687 53.2144142,4.84406532 C53.270371,5.03776195 53.3155662,5.23217305 53.3500012,5.42730447 C53.3844361,5.62243588 53.4016533,5.81326006 53.4016533,5.99978274 C53.4016533,6.32117566 53.3471321,6.59736855 53.2380881,6.82836971 C53.1290441,7.05937087 52.9769586,7.24876029 52.7818272,7.39654364 C52.5866958,7.54432699 52.353546,7.65336938 52.0823707,7.72367408 C51.8111954,7.79397878 51.513481,7.8291306 51.1892185,7.8291306 L50.5048272,7.8291306 L50.5048272,6.72721754 Z M52.704349,2.29804353 L51.8779142,3.12447833 L51.0557837,2.29804353 L51.8779142,1.47591308 L52.704349,2.29804353 Z M42.7182618,6.72721754 C42.8646104,6.72721754 43.0030655,6.69780479 43.1336314,6.6389784 C43.2641972,6.58015202 43.3890221,6.47397917 43.5081096,6.32045666 C43.6271972,6.16693415 43.7391091,5.95674059 43.8438488,5.68986969 C43.9485884,5.42299878 44.0483048,5.08152393 44.143001,4.66543488 L45.1975662,4.96243489 C45.1286963,5.20061 45.0670012,5.42945554 45.0124792,5.64897838 C44.9579572,5.86850122 44.9278271,6.05717326 44.9220879,6.21500013 L44.9220879,6.25373927 C44.9220879,6.3053917 44.9271096,6.35991289 44.9371531,6.41730449 C44.9471967,6.47469608 44.9651313,6.52778251 44.9909575,6.57656536 C45.0167837,6.62534821 45.0512182,6.66408696 45.0942618,6.69278275 C45.134436,6.71860897 45.1789138,6.73152189 45.2276966,6.73152189 L45.244914,6.73152189 C45.3510885,6.72865231 45.4515223,6.68991356 45.5462184,6.61530449 C45.6409145,6.54069542 45.7291528,6.44456595 45.8109358,6.32691318 C45.8927188,6.20926042 45.9673267,6.07582696 46.0347619,5.92660882 C46.102197,5.77739068 46.1624573,5.62602263 46.2155445,5.47250012 C46.2686317,5.31897761 46.3138269,5.16904432 46.3511314,5.02269576 C46.388436,4.8763472 46.4171313,4.74721805 46.4372184,4.63530445 L47.4530445,4.84191315 C47.41574,5.01408793 47.3856098,5.17262982 47.3626532,5.31754359 C47.3396966,5.46245736 47.3253489,5.60808635 47.3196097,5.75443491 C47.3167401,5.79173944 47.3153054,5.82904342 47.3153054,5.86634795 C47.3153054,5.93808744 47.3203271,6.02202139 47.3303706,6.11815231 C47.3404141,6.21428322 47.3640878,6.30826055 47.4013923,6.4000871 C47.4386969,6.49191364 47.4910659,6.56723898 47.558501,6.62606536 C47.6259362,6.68489174 47.7141744,6.71430449 47.8232184,6.71430449 C47.9466104,6.71430449 48.0463267,6.66623976 48.1223706,6.57010884 C48.1984145,6.47397792 48.2565226,6.35130523 48.2966967,6.20208709 C48.3368708,6.05286895 48.363414,5.88715321 48.3763271,5.70493491 C48.3892402,5.5227166 48.3956967,5.34552272 48.3956967,5.17334794 C48.3956967,5.11882593 48.3949793,5.07506549 48.3935445,5.04206533 C48.3921097,5.00906516 48.3913924,4.97821764 48.3913924,4.94952185 C48.3913924,4.92082605 48.390675,4.88854376 48.3892402,4.85267402 C48.3878054,4.81680427 48.387088,4.76730477 48.387088,4.70417402 L49.476088,4.61808706 C49.4846968,4.71278318 49.4933054,4.80532574 49.5019141,4.8957175 C49.5105229,4.98610926 49.5191315,5.07936919 49.5277402,5.17550011 C49.5363489,5.27163103 49.5471097,5.37349958 49.5600228,5.48110881 C49.5729359,5.58871805 49.588001,5.70565167 49.6052185,5.83191317 C49.6253055,5.98113131 49.6676312,6.11169523 49.7321967,6.22360883 C49.7967623,6.33552244 49.8720876,6.42878237 49.958175,6.50339145 C50.0442624,6.57800052 50.1368049,6.63395648 50.2358054,6.67126101 C50.3348059,6.70856555 50.4287833,6.72721754 50.5177402,6.72721754 L50.6770011,6.72721754 L50.6770011,7.8291306 L50.539262,7.8291306 C50.3986526,7.8291306 50.2601974,7.81478292 50.1238924,7.78608713 C49.9875874,7.75739133 49.8577408,7.71291351 49.7343489,7.65265234 C49.610957,7.59239117 49.4954581,7.51563106 49.3878489,7.42236973 C49.2802397,7.32910839 49.1862623,7.21791385 49.1059141,7.08878276 C48.9681743,7.31260997 48.7873935,7.49195601 48.5635663,7.62682625 C48.3397391,7.76169649 48.0929589,7.8291306 47.8232184,7.8291306 C47.5534779,7.8291306 47.3088499,7.76456603 47.0893271,7.63543495 C46.8698043,7.50630386 46.6954799,7.33413167 46.5663488,7.1189132 C46.483131,7.22508764 46.393458,7.3219345 46.2973271,7.40945668 C46.2011962,7.49697886 46.0978929,7.57302158 45.987414,7.63758712 C45.8769352,7.70215266 45.7600016,7.75236955 45.6366097,7.7882393 C45.5132178,7.82410904 45.3840886,7.84204365 45.2492184,7.84204365 C45.1200873,7.84204365 44.9952624,7.82554381 44.8747401,7.79254365 C44.7542178,7.75954348 44.6423058,7.71147874 44.539001,7.64834799 C44.4356961,7.58521724 44.3424362,7.50845714 44.2592184,7.41806538 C44.1760005,7.32767362 44.1071317,7.22652246 44.0526097,7.11460885 C43.9091307,7.36713186 43.7326542,7.54934743 43.5231749,7.66126104 C43.3136955,7.77317464 43.0468286,7.8291306 42.7225661,7.8291306 L42.5374792,7.8291306 L42.5374792,6.72721754 L42.7182618,6.72721754 Z M35.3621312,6.72721754 L36.2359138,6.72721754 C36.5888721,6.72721754 36.9446947,6.69206571 37.3033921,6.62176101 C37.6620896,6.55145631 38.0150426,6.45963114 38.3622617,6.34628275 C38.7094808,6.23293435 39.0466514,6.10523997 39.3737835,5.96319578 C39.7009155,5.82115159 40.0093907,5.67839214 40.2992183,5.53491316 C40.1815655,5.52056527 40.0588928,5.49115252 39.9311965,5.44667403 C39.8035002,5.40219555 39.6722189,5.35054389 39.5373487,5.29171751 C39.4024784,5.23289112 39.2647407,5.1704787 39.1241313,5.10447837 C38.9835219,5.03847804 38.8429146,4.97893516 38.7023052,4.92584793 C38.5616958,4.87276071 38.4203711,4.82828289 38.2783269,4.79241315 C38.1362827,4.7565434 37.9978276,4.7386088 37.8629573,4.7386088 C37.7567829,4.7386088 37.6556317,4.75797817 37.5595008,4.7967175 C37.4633699,4.83545682 37.3729795,4.88423894 37.2883269,4.94306532 C37.2036743,5.00189171 37.1276316,5.0657389 37.0601965,5.13460881 C36.9927613,5.20347872 36.9353706,5.26732591 36.8880225,5.32615229 C36.8406745,5.38497867 36.8040879,5.43447818 36.7782617,5.47465229 L36.7352182,5.53491316 L35.8743486,5.06573924 C35.9747839,4.87634698 36.1017609,4.6948488 36.2552834,4.52123923 C36.4088059,4.34762966 36.5759564,4.19410945 36.7567399,4.060674 C36.9375234,3.92723855 37.1233259,3.82106569 37.314153,3.74215226 C37.50498,3.66323882 37.687913,3.62378269 37.8629573,3.62378269 C38.0093059,3.62378269 38.1563697,3.64028252 38.304153,3.67328269 C38.4519364,3.70628285 38.6011523,3.75004329 38.7518052,3.8045653 C38.9024581,3.85908731 39.0545436,3.92078235 39.2080661,3.98965226 C39.3615886,4.05852217 39.5186957,4.12882582 39.6793922,4.20056531 C39.8458278,4.28091354 40.0280434,4.36054318 40.2260444,4.43945662 C40.4240453,4.51837006 40.6277824,4.5886737 40.8372618,4.65036967 C41.0467411,4.71206563 41.2569346,4.76228252 41.4678487,4.80102184 C41.6787628,4.83976117 41.8803478,4.85913054 42.0726096,4.85913054 L41.8875226,5.90939143 C41.7784786,5.95530471 41.6737405,6.00480421 41.5733052,6.05789144 C41.47287,6.11097866 41.3695666,6.16191293 41.2633922,6.21069579 C41.3207838,6.33121813 41.4068699,6.42591284 41.5216531,6.49478275 C41.6364363,6.56365266 41.7576742,6.61530432 41.8853705,6.64973927 C42.0130668,6.68417423 42.1364568,6.70569575 42.2555444,6.71430449 C42.3746319,6.72291323 42.4686093,6.72721754 42.5374792,6.72721754 L42.7096531,6.72721754 L42.7096531,7.8291306 L42.5374792,7.8291306 C41.9750416,7.8291306 41.4986985,7.73156636 41.1084357,7.53643495 C40.7181728,7.34130353 40.4369583,7.06439325 40.2647835,6.7056958 C39.9749559,6.84917478 39.6750894,6.9883473 39.3651748,7.12321755 C39.0552602,7.25808779 38.7338721,7.37789094 38.4010008,7.4826306 C38.0681296,7.58737025 37.7216331,7.6713042 37.3615008,7.73443495 C37.0013686,7.7975657 36.6261767,7.8291306 36.2359138,7.8291306 L35.3621312,7.8291306 L35.3621312,6.72721754 Z M38.6291313,2.23778266 L37.8026965,3.06421746 L36.980566,2.23778266 L37.8026965,1.4156522 L38.6291313,2.23778266 Z M33.0980442,7.2265219 C32.9459565,7.2265219 32.7931537,7.21647852 32.6396311,7.19639146 C32.4861086,7.1763044 32.3390449,7.14330473 32.1984355,7.09739146 C32.0578261,7.05147818 31.9265448,6.99337007 31.8045876,6.92306537 C31.6826305,6.85276067 31.5764577,6.76739195 31.4860659,6.66695667 C31.3956741,6.56652138 31.3246531,6.45030515 31.2730007,6.31830448 C31.2213482,6.18630382 31.1955224,6.03708792 31.1955224,5.8706523 C31.1955224,5.69273836 31.2270873,5.52343571 31.2902181,5.36273925 C31.3533488,5.20204279 31.4380002,5.05139212 31.5441746,4.91078272 C31.650349,4.77017331 31.7737391,4.6396094 31.9143485,4.51908705 C32.0549579,4.39856471 32.2027391,4.28880494 32.3576964,4.18980444 C32.5126537,4.09080394 32.6697608,4.00184831 32.8290225,3.92293487 C32.9882841,3.84402143 33.1396522,3.77586993 33.2831312,3.71847834 L33.2271746,3.06421746 L34.3161747,2.83178267 C34.3190442,2.85760889 34.3247833,2.91428223 34.333392,3.00180441 C34.3420008,3.08932659 34.3527615,3.19334729 34.3656747,3.31386964 C34.3785878,3.43439198 34.3922181,3.56280374 34.406566,3.69910878 C34.4209139,3.83541381 34.4345442,3.96310819 34.4474573,4.08219574 C34.4603704,4.2012833 34.4711311,4.30458661 34.4797399,4.39210879 C34.4883486,4.47963097 34.4940877,4.53343478 34.4969573,4.55352184 C34.540001,4.92082803 34.5794571,5.2206946 34.6153268,5.45313055 C34.6511966,5.6855665 34.6820441,5.86993423 34.7078703,6.00623926 C34.7336965,6.14254429 34.7559354,6.23867377 34.7745877,6.29463057 C34.79324,6.35058737 34.8068703,6.38717397 34.815479,6.40439144 C34.8441748,6.46752219 34.8771745,6.51989124 34.914479,6.56150014 C34.9517836,6.60310905 34.9948266,6.63610872 35.0436095,6.66050014 C35.0923923,6.68489157 35.149783,6.70210879 35.2157834,6.71215232 C35.2817837,6.72219585 35.3592612,6.72721754 35.4482182,6.72721754 L35.5343051,6.72721754 L35.5343051,7.8291306 L35.4482182,7.8291306 C35.2961304,7.82626102 35.153371,7.82123934 35.0199355,7.81406539 C34.8865001,7.80689144 34.7588057,7.78250038 34.6368486,7.74089147 C34.5148914,7.69928257 34.3993926,7.63400061 34.2903486,7.54504364 C34.1813045,7.45608667 34.0780012,7.32695753 33.9804355,7.15765233 C33.8168695,7.18060897 33.6633493,7.19782619 33.5198703,7.2093045 C33.3763913,7.22078282 33.235784,7.2265219 33.0980442,7.2265219 Z M33.5973486,6.09447839 C33.5830007,6.01699974 33.568653,5.92517457 33.5543051,5.81900013 C33.5399572,5.71282568 33.5256095,5.59732683 33.5112616,5.47250012 C33.4969137,5.3476734 33.4818486,5.21782687 33.4660659,5.08295663 C33.4502833,4.94808639 33.4337834,4.81321817 33.4165659,4.67834793 C33.3419569,4.7099133 33.2587403,4.75008682 33.1669138,4.79886967 C33.0750872,4.84765252 32.9803925,4.90217372 32.8828268,4.96243489 C32.7852611,5.02269606 32.689849,5.08797802 32.5965877,5.15828272 C32.5033263,5.22858742 32.4208271,5.30032584 32.3490877,5.37350012 C32.2773482,5.4466744 32.2192401,5.52056496 32.1747616,5.59517403 C32.1302831,5.6697831 32.1080442,5.74152152 32.1080442,5.81039143 C32.1080442,5.87352218 32.1396091,5.92589122 32.2027398,5.96750013 C32.2658706,6.00910903 32.3455002,6.0421087 32.4416311,6.06650013 C32.5377621,6.09089156 32.6417828,6.10810878 32.7536964,6.11815231 C32.86561,6.12819584 32.9717828,6.13321752 33.0722181,6.13321752 C33.1640447,6.13321752 33.2558698,6.1296306 33.3476964,6.12245665 C33.4395229,6.11528271 33.5227395,6.10595671 33.5973486,6.09447839 Z" id="path-2"/>
        <path d="M71.0695668,29.4599137 C71.6989612,29.3349275 72.2725497,29.1775813 72.7903494,28.9878702 C73.3081491,28.7981591 73.762333,28.5861322 74.1529147,28.3517832 C74.5434963,28.1174342 74.8671163,27.8685816 75.1237842,27.605218 C75.3804522,27.3418543 75.5623489,27.0740309 75.6694799,26.8017397 C75.4775369,26.8017397 75.2744375,26.7983919 75.0601755,26.7916962 C74.8459136,26.7850005 74.6695965,26.777189 74.531219,26.7682614 C74.0893037,26.7325511 73.6875686,26.6488563 73.3260016,26.5171745 C72.9644346,26.3854927 72.6530898,26.2047119 72.3919581,25.9748266 C72.1308263,25.7449414 71.9288429,25.4648428 71.7860016,25.1345223 C71.6431603,24.8042018 71.5717407,24.4247853 71.5717407,23.9962614 C71.5717407,23.7239702 71.6007549,23.4449874 71.6587842,23.1593048 C71.7168134,22.8736223 71.8005083,22.5946395 71.9098711,22.3223483 C72.019234,22.0500571 72.1553776,21.793393 72.3183059,21.5523483 C72.4812343,21.3113036 72.6653629,21.0992767 72.8706972,20.9162613 C73.0760316,20.7332459 73.3025656,20.5892908 73.5503059,20.4843917 C73.7980463,20.3794927 74.0647538,20.3270439 74.3504364,20.3270439 C74.7611051,20.3270439 75.1360579,20.4163184 75.475306,20.59487 C75.8145541,20.7734216 76.1147395,21.0111149 76.3758712,21.307957 C76.637003,21.6047991 76.8613051,21.9462739 77.0487843,22.3323918 C77.2362635,22.7185097 77.3869142,23.1202448 77.5007408,23.5376092 C77.6145675,23.9549736 77.6904508,24.3712158 77.728393,24.7863484 C77.7663352,25.2014809 77.7674511,25.5853611 77.7317408,25.9380006 C77.6781753,26.4602641 77.5610026,26.9501577 77.3802191,27.4076962 C77.1994356,27.8652348 76.9673219,28.2870567 76.6838712,28.6731745 C76.4004205,29.0592924 76.0712209,29.4096947 75.6962625,29.7243919 C75.3213041,30.0390892 74.9151053,30.31584 74.4776538,30.5546528 C74.0402023,30.7934656 73.5748591,30.9932173 73.0816103,31.1539137 C72.5883614,31.3146102 72.0828447,31.4351307 71.565045,31.5154789 L71.0695668,29.4599137 Z M74.3504364,22.4495657 C74.2566968,22.4317105 74.1495674,22.4640725 74.0290451,22.5466527 C73.9085227,22.6292328 73.7969296,22.7408259 73.6942625,22.8814353 C73.5915953,23.0220447 73.5056686,23.1771591 73.4364799,23.3467831 C73.3672911,23.5164072 73.3326972,23.6793331 73.3326972,23.8355657 C73.3326972,23.9873346 73.3795663,24.1134348 73.4733059,24.2138701 C73.5670455,24.3143054 73.6875661,24.3957683 73.8348712,24.4582614 C73.9821763,24.5207545 74.14845,24.5687395 74.3336973,24.6022179 C74.5189446,24.6356964 74.7030732,24.658015 74.8860886,24.6691744 C75.069104,24.6803339 75.2431892,24.6859136 75.4083495,24.6859136 L75.8234799,24.6859136 C75.756523,24.4091586 75.677292,24.143567 75.5857842,23.889131 C75.4942765,23.6346949 75.3882631,23.407045 75.2677408,23.2061744 C75.1472184,23.0053038 75.0110748,22.8379142 74.859306,22.7040005 C74.7075371,22.5700868 74.5379156,22.485276 74.3504364,22.4495657 Z M64.0592188,26.8017397 C63.6574776,26.8017397 63.2244964,26.7861167 62.7602622,26.7548701 C62.296028,26.7236236 61.8318008,26.6611315 61.3675665,26.5673919 C60.9033323,26.4736523 60.4536122,26.3419724 60.0183926,26.1723484 C59.583173,26.0027244 59.1948291,25.78177 58.8533491,25.5094788 C58.5118691,25.2371876 58.2328864,24.9057561 58.0163926,24.5151744 C57.7998987,24.1245928 57.6782623,23.6592496 57.6514795,23.1191309 C57.6514795,22.8557673 57.6804937,22.6002191 57.738523,22.3524787 C57.7965523,22.1047384 57.8735515,21.8625814 57.969523,21.6260005 C58.0654945,21.3894196 58.1748557,21.15619 58.29761,20.9263048 C58.4203642,20.6964196 58.5464644,20.4654219 58.6759143,20.2333048 L60.2493926,21.5523483 C60.1824358,21.6460879 60.1043206,21.7677244 60.0150448,21.9172613 C59.925769,22.0667983 59.8398423,22.2241446 59.7572622,22.3893048 C59.674682,22.5544651 59.6054943,22.7207388 59.5496969,22.8881309 C59.4938996,23.0555231 59.4660013,23.20171 59.4660013,23.3266962 C59.4660013,23.4918564 59.5273775,23.6391593 59.6501317,23.7686092 C59.772886,23.8980591 59.9402756,24.013 60.1523057,24.1134353 C60.3643357,24.2138706 60.6165361,24.2986813 60.9089144,24.3678701 C61.2012926,24.4370588 61.518217,24.4950873 61.859697,24.5419571 C62.201177,24.5888269 62.5582749,24.6223048 62.9310014,24.6423918 C63.3037279,24.6624789 63.6797966,24.6725223 64.0592188,24.6725223 C64.3761479,24.6725223 64.7365936,24.6568992 65.1405666,24.6256527 C65.5445397,24.5944062 65.9607819,24.5441893 66.3893058,24.4750005 C66.8178297,24.4058118 67.2441153,24.3165373 67.6681754,24.2071744 C68.0922355,24.0978116 68.4805794,23.9650158 68.8332189,23.8087831 C68.7796534,23.598985 68.7160453,23.3981174 68.6423928,23.2061744 C68.5687402,23.0142314 68.4783498,22.8144798 68.3712189,22.6069135 C68.2640879,22.3993473 68.1368718,22.177277 67.9895667,21.9406961 C67.8422616,21.7041152 67.6681764,21.43406 67.4673058,21.1305222 L69.1144363,20.0592178 C69.1947845,20.1886678 69.2885227,20.3471299 69.3956537,20.5346091 C69.5027847,20.7220883 69.6110299,20.9240718 69.7203928,21.1405657 C69.8297557,21.3570595 69.936885,21.5858253 70.0417841,21.82687 C70.1466832,22.0679147 70.2404214,22.3089558 70.3230015,22.5500005 C70.4055816,22.7910452 70.4691897,23.0265066 70.5138276,23.2563918 C70.5584655,23.486277 70.5763204,23.7016517 70.5673928,23.9025223 C70.5450739,24.2774807 70.4156259,24.6089121 70.179045,24.8968266 C69.9424641,25.1847411 69.6400468,25.4358256 69.2717841,25.6500875 C68.9035214,25.8643495 68.4883951,26.0451303 68.0263928,26.1924354 C67.5643905,26.3397404 67.0956995,26.4580291 66.6203058,26.5473049 C66.1449121,26.6365807 65.6840326,26.7013047 65.2376536,26.7414788 C64.7912745,26.781653 64.3984669,26.8017397 64.0592188,26.8017397 Z M64.0324362,30.4709572 L62.5460014,28.9845224 L64.0324362,27.4980876 L65.518871,28.9845224 L64.0324362,30.4709572 Z M54.772349,26.8218267 C54.794668,26.4557958 54.8169866,26.0763793 54.8393055,25.6835658 C54.8616245,25.2907522 54.8805953,24.9024083 54.8962186,24.5185223 C54.9118418,24.1346363 54.9218852,23.7619154 54.926349,23.4003483 C54.9308128,23.0387813 54.9263491,22.7062339 54.9129577,22.4026961 C54.886175,21.7688379 54.8605086,21.2119884 54.8359577,20.7321309 C54.8114069,20.2522734 54.7868564,19.8271037 54.7623055,19.4566091 C54.7377547,19.0861145 54.7132042,18.7613786 54.6886534,18.4823917 C54.6641025,18.2034048 54.6384361,17.9478566 54.6116534,17.7157395 C54.5848706,17.4836224 54.5558564,17.2660159 54.5246099,17.0629134 C54.4933633,16.8598109 54.4598854,16.6489 54.4241751,16.4301743 L56.4931317,15.7472177 C56.5913351,16.3453657 56.6705661,16.9479683 56.7308273,17.5550439 C56.7910885,18.1621194 56.8368417,18.7435194 56.8680882,19.2992613 C56.8993347,19.8550032 56.9205374,20.3716792 56.9316969,20.8493048 C56.9428564,21.3269304 56.948436,21.7353611 56.948436,22.0746092 C56.948436,22.3826107 56.9473201,22.7151581 56.9450882,23.0722614 C56.9428563,23.4293646 56.9383926,23.7998537 56.9316969,24.1837397 C56.9250012,24.5676256 56.9149578,24.9559696 56.9015665,25.3487832 C56.8881751,25.7415967 56.8680883,26.125477 56.8413056,26.5004354 L54.772349,26.8218267 Z M48.0365228,24.6859136 L49.6434793,24.6859136 C49.8354223,24.6859136 50.0474492,24.6758702 50.2795663,24.6557831 C50.5116834,24.6356961 50.7292899,24.5944066 50.9323924,24.5319136 C51.1354949,24.4694205 51.3051164,24.3767982 51.441262,24.254044 C51.5774076,24.1312898 51.6454794,23.9694798 51.6454794,23.7686092 C51.6454794,23.6614782 51.6131174,23.5019001 51.5483924,23.2898701 C51.4836675,23.07784 51.3988567,22.8412627 51.2939576,22.5801309 C51.1890586,22.3189992 51.0707699,22.0455961 50.9390881,21.7599135 C50.8074062,21.4742309 50.6768423,21.2019438 50.5473924,20.9430439 L52.462349,19.9922613 C52.5873351,20.2734801 52.7112034,20.5725496 52.8339577,20.8894787 C52.9567119,21.2064078 53.0671891,21.5277959 53.1653925,21.8536526 C53.2635958,22.1795094 53.3428269,22.5042452 53.4030881,22.8278701 C53.4633493,23.1514949 53.4934794,23.4606077 53.4934794,23.7552179 C53.4934794,24.3087279 53.3919297,24.7785348 53.1888272,25.1646527 C52.9857248,25.5507706 52.7100898,25.8654631 52.3619142,26.1087397 C52.0137385,26.3520163 51.6053078,26.5283334 51.1366098,26.6376962 C50.6679118,26.7470591 50.1657429,26.8017397 49.630088,26.8017397 L48.0365228,26.8017397 L48.0365228,24.6859136 Z M50.7348707,29.0046093 L51.9936533,27.7458267 L53.2926099,29.0380876 L52.0070446,30.3303485 L50.7348707,29.0581745 L49.476088,30.3169572 L48.1771315,29.0246963 L49.4626967,27.7324354 L50.7348707,29.0046093 Z M49.5363489,30.9597398 L50.728175,29.7679137 L51.9266968,30.9664355 L50.7348707,32.1582616 L49.5363489,30.9597398 Z M43.6910444,24.6859136 L44.1262618,24.6859136 C44.3271324,24.6859136 44.4978698,24.6535516 44.6384792,24.5888266 C44.7790886,24.5241017 44.8951454,24.4325953 44.9866531,24.3143049 C45.0781609,24.1960144 45.1451167,24.0565231 45.1875227,23.8958266 C45.2299287,23.7351301 45.2511314,23.5588131 45.2511314,23.3668701 C45.2555952,23.1035064 45.2578271,22.7832343 45.2578271,22.406044 C45.2578271,22.0288537 45.2555952,21.6226548 45.2511314,21.1874352 C45.2466676,20.7522157 45.239972,20.3013796 45.2310445,19.8349135 C45.2221169,19.3684474 45.2109576,18.9131476 45.1975662,18.4690004 C45.1841748,18.0248532 45.1707837,17.6030314 45.1573923,17.2035221 C45.1440009,16.8040129 45.1306097,16.4547265 45.1172184,16.1556525 L47.2464358,15.7673047 L47.320088,23.7953918 C47.320088,24.0721468 47.3903916,24.2897534 47.531001,24.4482179 C47.6716104,24.6066825 47.8802895,24.6859136 48.1570445,24.6859136 L48.3043489,24.6859136 L48.3043489,26.8017397 L48.1570445,26.8017397 C47.9740291,26.8062035 47.7899005,26.7905805 47.6046532,26.7548701 C47.4194059,26.7191598 47.2442047,26.6689429 47.0790445,26.604218 C46.9138842,26.539493 46.7665814,26.4624938 46.6371314,26.373218 C46.5076815,26.2839422 46.4072477,26.1879721 46.3358271,26.0853049 C46.2420875,26.2013635 46.1327263,26.3040291 46.0077401,26.3933049 C45.882754,26.4825807 45.7321033,26.5573481 45.5557836,26.6176093 C45.3794639,26.6778704 45.1730167,26.7236236 44.9364358,26.7548701 C44.6998549,26.7861167 44.4253359,26.8017397 44.1128705,26.8017397 L43.6910444,26.8017397 L43.6910444,24.6859136 Z M43.9588705,24.6859136 L43.9588705,26.8017397 L43.8048705,26.8017397 C43.5906086,26.8017397 43.3796976,26.7838848 43.1721314,26.7481745 C42.9645651,26.7124642 42.7692772,26.6622473 42.5862618,26.5975223 C42.4032464,26.5327974 42.2347408,26.4557981 42.08074,26.3665223 C41.9267393,26.2772465 41.7939435,26.1812764 41.6823487,26.0786093 C41.4725506,26.2393057 41.2326254,26.3665218 40.9625661,26.4602614 C40.6925068,26.554001 40.4068285,26.6265366 40.1055226,26.6778701 C39.8042167,26.7292037 39.493988,26.7626817 39.1748269,26.7783049 C38.8556659,26.7939282 38.5420893,26.8017397 38.2340878,26.8017397 L37.9863486,26.8017397 L37.9863486,24.6859136 L38.2340878,24.6859136 C38.5554807,24.6859136 38.8422749,24.6769861 39.0944791,24.659131 C39.3466833,24.6412758 39.5676376,24.6100297 39.7573487,24.5653918 C39.9470598,24.5207539 40.1066379,24.4616096 40.2360878,24.3879571 C40.3655378,24.3143045 40.4704353,24.2216822 40.5507835,24.1100875 C40.6534507,23.9672462 40.7170587,23.808784 40.7416096,23.6346962 C40.7661604,23.4606083 40.7683923,23.2809435 40.7483052,23.0956962 C40.7282182,22.9104488 40.6936243,22.7252043 40.6445226,22.539957 C40.5954209,22.3547097 40.5507837,22.1772767 40.5106096,22.0076527 L42.4590444,21.4519135 C42.5126099,21.6527841 42.5583631,21.8357967 42.5963053,22.000957 C42.6342475,22.1661172 42.6677254,22.3268113 42.6967401,22.483044 C42.7257547,22.6392766 42.7514211,22.7977388 42.7737401,22.9584353 C42.796059,23.1191317 42.8206095,23.293217 42.8473922,23.4806962 C42.8652474,23.6012185 42.8886819,23.7317824 42.9176966,23.8723918 C42.9467112,24.0130012 42.9946962,24.1435651 43.0616531,24.2640875 C43.12861,24.3846098 43.2212322,24.4850436 43.3395227,24.5653918 C43.4578131,24.6457401 43.6129275,24.6859136 43.8048705,24.6859136 L43.9588705,24.6859136 Z M40.5976531,28.7635658 L39.3388704,30.0223485 L38.0399139,28.7300876 L39.3254791,27.4378267 L40.5976531,28.7100006 L41.8564357,27.451218 L43.1553922,28.7434789 L41.869827,30.0357398 L40.5976531,28.7635658 Z M30.0319137,24.6859136 L32.221392,24.6859136 C32.4490453,24.6859136 32.6610722,24.6591312 32.857479,24.6055658 C33.0538858,24.5520003 33.2257391,24.4816966 33.3730442,24.3946527 C33.5203493,24.3076088 33.638638,24.2094069 33.7279138,24.100044 C33.8171896,23.9906811 33.8685224,23.880204 33.8819138,23.7686092 C33.9042327,23.5454197 33.8707548,23.3043786 33.781479,23.0454788 C33.6922032,22.7865789 33.5649871,22.5221033 33.3998268,22.252044 C33.2346666,21.9819846 33.0404946,21.7119294 32.8173051,21.44187 C32.5941155,21.1718107 32.3620019,20.9140307 32.1209572,20.6685222 C31.8799125,20.4230137 31.6399874,20.1953638 31.4011746,19.9855657 C31.1623618,19.7757675 30.9425234,19.5949867 30.7416528,19.4432178 L30.9224355,17.6019134 L37.0757399,15.0240873 L37.8524356,16.8653917 L32.7704355,18.9410439 C33.078437,19.2267265 33.3563038,19.5045933 33.6040442,19.7746526 C33.8517846,20.0447119 34.0794345,20.3147672 34.2870007,20.5848265 C34.494567,20.8548859 34.6842753,21.1249411 34.8561312,21.3950005 C35.0279871,21.6650598 35.1897971,21.9429266 35.341566,22.2286092 C35.4754797,22.4785814 35.616087,22.7430571 35.7633921,23.022044 C35.9106972,23.3010309 36.0814346,23.5599269 36.2756095,23.7987396 C36.4697844,24.0375524 36.6940865,24.2395359 36.9485225,24.4046962 C37.2029586,24.5698564 37.4997962,24.6635946 37.8390443,24.6859136 L38.2541747,24.6859136 L38.2541747,26.8017397 L38.0466095,26.8017397 C37.7341442,26.8017397 37.4373066,26.780537 37.1560878,26.738131 C36.874869,26.695725 36.6070455,26.6265373 36.3526095,26.5305658 C36.0981734,26.4345943 35.8560164,26.30961 35.6261312,26.1556093 C35.396246,26.0016085 35.1764076,25.8130162 34.9666095,25.5898266 C34.805913,25.8040886 34.6206685,25.9871013 34.4108703,26.1388701 C34.2010722,26.290639 33.9790019,26.4156233 33.7446529,26.5138267 C33.5103039,26.6120301 33.2681469,26.6834496 33.0181746,26.7280875 C32.7682024,26.7727254 32.5226976,26.7972759 32.2816529,26.8017397 L30.0319137,26.8017397 L30.0319137,24.6859136 Z M30.2997398,24.6859136 L30.2997398,26.8017397 L30.1457398,26.8017397 C29.9314778,26.8017397 29.7205669,26.7838848 29.5130006,26.7481745 C29.3054344,26.7124642 29.1101465,26.6622473 28.9271311,26.5975223 C28.7441156,26.5327974 28.5756101,26.4557981 28.4216093,26.3665223 C28.2676085,26.2772465 28.1348128,26.1812764 28.023218,26.0786093 C27.8134198,26.2393057 27.5734947,26.3665218 27.3034354,26.4602614 C27.033376,26.554001 26.7476977,26.6265366 26.4463919,26.6778701 C26.145086,26.7292037 25.8348572,26.7626817 25.5156962,26.7783049 C25.1965352,26.7939282 24.8829586,26.8017397 24.5749571,26.8017397 L24.3272179,26.8017397 L24.3272179,24.6859136 L24.5749571,24.6859136 C24.89635,24.6859136 25.1831442,24.6769861 25.4353484,24.659131 C25.6875525,24.6412758 25.9085069,24.6100297 26.098218,24.5653918 C26.2879291,24.5207539 26.4475072,24.4616096 26.5769571,24.3879571 C26.706407,24.3143045 26.8113045,24.2216822 26.8916528,24.1100875 C26.9943199,23.9672462 27.057928,23.808784 27.0824788,23.6346962 C27.1070297,23.4606083 27.1092616,23.2809435 27.0891745,23.0956962 C27.0690874,22.9104488 27.0344936,22.7252043 26.9853919,22.539957 C26.9362902,22.3547097 26.891653,22.1772767 26.8514788,22.0076527 L28.7999137,21.4519135 C28.8534792,21.6527841 28.8992323,21.8357967 28.9371745,22.000957 C28.9751168,22.1661172 29.0085947,22.3268113 29.0376093,22.483044 C29.066624,22.6392766 29.0922904,22.7977388 29.1146093,22.9584353 C29.1369283,23.1191317 29.1614788,23.293217 29.1882615,23.4806962 C29.2061167,23.6012185 29.2295512,23.7317824 29.2585659,23.8723918 C29.2875805,24.0130012 29.3355655,24.1435651 29.4025224,24.2640875 C29.4694792,24.3846098 29.5621015,24.4850436 29.6803919,24.5653918 C29.7986824,24.6457401 29.9537968,24.6859136 30.1457398,24.6859136 L30.2997398,24.6859136 Z M26.9385223,28.7635658 L25.6797397,30.0223485 L24.3807831,28.7300876 L25.6663484,27.4378267 L26.9385223,28.7100006 L28.197305,27.451218 L29.4962615,28.7434789 L28.2106963,30.0357398 L26.9385223,28.7635658 Z M12.0607829,24.6859136 C12.2973638,24.6859136 12.5183181,24.646856 12.7236524,24.5687397 C12.9289868,24.4906233 13.1231588,24.3399727 13.3061742,24.1167831 C13.4891896,23.8935936 13.661043,23.5789011 13.8217394,23.1726962 C13.9824359,22.7664912 14.1364344,22.2353081 14.2837394,21.5791309 L16.0580873,21.8335657 C16.0536235,21.8558846 16.0469279,21.8848988 16.0380003,21.9206092 C16.0112176,22.0322039 15.9788556,22.1895502 15.9409134,22.3926527 C15.9029712,22.5957551 15.8672614,22.823405 15.833783,23.0756092 C15.8003045,23.3278134 15.7846815,23.5688544 15.7869134,23.7987396 C15.7891453,24.0286249 15.8159276,24.2272606 15.8672612,24.3946527 C15.9185948,24.5620448 16.0089852,24.6613627 16.1384351,24.6926092 C16.2768126,24.7283196 16.4107243,24.7004213 16.5401743,24.6089136 C16.6696242,24.5174059 16.7923766,24.385726 16.9084351,24.2138701 C17.0244937,24.0420142 17.1316231,23.8411466 17.2298265,23.6112614 C17.3280299,23.3813762 17.4173043,23.1459148 17.4976526,22.9048701 C17.5780008,22.6638254 17.6471885,22.427248 17.7052178,22.1951309 C17.7632471,21.9630138 17.8078843,21.7576825 17.8391308,21.5791309 L19.606783,21.8335657 C19.5978555,21.9451605 19.5822324,22.0935793 19.5599135,22.2788266 C19.5375945,22.4640739 19.5197396,22.6615936 19.5063482,22.8713918 C19.4929569,23.08119 19.4873772,23.2921009 19.4896091,23.5041309 C19.491841,23.716161 19.5152756,23.9081011 19.5599135,24.079957 C19.6045514,24.251813 19.6737391,24.3924203 19.7674787,24.5017831 C19.8612183,24.611146 19.9906663,24.6658266 20.1558265,24.6658266 C20.3031316,24.6658266 20.4303477,24.6167257 20.5374787,24.5185223 C20.6446097,24.4203189 20.7350001,24.2919868 20.8086526,24.1335223 C20.8823052,23.9750577 20.9414495,23.7942769 20.9860874,23.5911744 C21.0307253,23.388072 21.0642032,23.1816247 21.0865222,22.9718266 C21.1088411,22.7620284 21.1200005,22.5578131 21.1200005,22.3591744 C21.1200005,22.1605357 21.1133049,21.9853346 21.0999135,21.8335657 L22.9077396,21.5791309 L23.1286962,23.4673049 C23.1554789,23.6726392 23.2135073,23.8511882 23.3027831,24.002957 C23.3920589,24.1547259 23.4969564,24.2808261 23.6174788,24.3812614 C23.7380011,24.4816967 23.8652172,24.55758 23.999131,24.6089136 C24.1330447,24.6602472 24.2602608,24.6859136 24.3807831,24.6859136 L24.595044,24.6859136 L24.595044,26.8017397 L24.3807831,26.8017397 C23.9477955,26.8017397 23.5393647,26.7258564 23.1554788,26.5740875 C22.7715928,26.4223187 22.4390454,26.1656545 22.1578266,25.8040875 C22.1310438,25.8397978 22.1042615,25.8710439 22.0774787,25.8978266 C22.050696,25.9246094 22.0261455,25.9513917 22.0038266,25.9781745 L22.0038266,25.9714788 C21.7627819,26.2259149 21.4849151,26.4278984 21.1702179,26.5774354 C20.8555206,26.7269723 20.5173936,26.8017397 20.1558265,26.8017397 C19.7496216,26.8017397 19.3757847,26.7146971 19.0343048,26.5406093 C18.6928248,26.3665214 18.4082624,26.1299441 18.1806091,25.8308701 C17.9127817,26.1254803 17.6092485,26.3642895 17.2700004,26.5473049 C16.9307523,26.7303203 16.5580314,26.8218267 16.1518264,26.8218267 C15.7724042,26.8218267 15.4197701,26.7370159 15.0939134,26.5673919 C14.7680567,26.3977678 14.4980014,26.1656542 14.2837394,25.871044 C14.0426948,26.2058283 13.7447412,26.4446375 13.3898699,26.5874788 C13.0349985,26.7303201 12.5964377,26.8017397 12.0741742,26.8017397 L11.9335655,26.8017397 L11.9335655,24.6859136 L12.0607829,24.6859136 Z M18.7497395,18.9879135 L17.4909569,20.2466961 L16.1920004,18.9544352 L17.4775656,17.6621743 L18.7497395,18.9343482 L20.0085222,17.6755656 L21.3074787,18.9678265 L20.0219135,20.2600874 L18.7497395,18.9879135 Z M19.9482613,17.032783 L18.7564352,18.2246091 L17.5579134,17.0260873 L18.7497395,15.8342612 L19.9482613,17.032783 Z M11.9737394,26.8017397 C11.8710722,26.8017397 11.7784499,26.797276 11.6958698,26.7883484 C11.6132897,26.7794208 11.5318267,26.7671456 11.4514785,26.7515223 C11.3711303,26.7358991 11.2896673,26.7158123 11.2070872,26.6912614 C11.1245071,26.6667106 11.0341167,26.6388123 10.9359133,26.6075658 C10.9359133,27.3664102 10.7975378,28.0437802 10.5207828,28.6396963 C10.2440278,29.2356123 9.86684318,29.7377812 9.38921759,30.146218 C8.91159201,30.5546549 8.3513947,30.8659996 7.70860886,31.0802615 C7.06582303,31.2945235 6.37394587,31.4016529 5.63295664,31.4016529 C4.88750363,31.4016529 4.2112495,31.2967554 3.60417399,31.0869572 C2.99709848,30.877159 2.47930654,30.5736258 2.05078265,30.1763485 C1.62225876,29.7790711 1.29194322,29.2936412 1.05982611,28.7200441 C0.827709002,28.146447 0.711652189,27.4980912 0.711652189,26.7749571 C0.711652189,26.3910711 0.738434531,26.0261617 0.792000017,25.6802179 C0.845565504,25.3342742 0.92814439,24.9872197 1.03973915,24.639044 C1.15133392,24.2908684 1.29082528,23.9337705 1.45821742,23.5677396 C1.62560957,23.2017088 1.82312934,22.8066693 2.05078265,22.3826092 L3.55730442,23.4673049 C3.4278545,23.699422 3.30287024,23.9594339 3.1823479,24.2473484 C3.06182555,24.5352628 2.95581212,24.8321005 2.86430441,25.1378701 C2.7727967,25.4436398 2.69914527,25.7482889 2.64334788,26.0518267 C2.5875505,26.3553644 2.55965223,26.6388109 2.55965223,26.9021745 C2.55965223,27.2503502 2.64446298,27.5695064 2.81408702,27.8596528 C2.98371106,28.1497992 3.20801317,28.3986518 3.48700008,28.606218 C3.76598698,28.8137843 4.08402729,28.9767102 4.44113053,29.0950006 C4.79823377,29.2132911 5.16649097,29.2746673 5.54591316,29.2791311 C6.06817666,29.2880587 6.54579508,29.2467692 6.97878276,29.1552615 C7.41177044,29.0637538 7.78449136,28.9175668 8.0969567,28.7166963 C8.40942203,28.5158257 8.65157904,28.2569297 8.82343497,27.9400006 C8.99529091,27.6230715 9.08121759,27.2414231 9.08121759,26.7950441 C9.08121759,26.5361442 9.04327594,26.2605093 8.9673915,25.968131 C8.89150706,25.6757527 8.79218921,25.3722195 8.66943497,25.0575223 C8.54668073,24.742825 8.40384158,24.4192051 8.24091322,24.0866527 C8.07798487,23.7541003 7.9094793,23.4137414 7.73539147,23.0655657 L9.56330456,21.9072179 L10.2395654,23.2128701 C10.4225809,23.5833647 10.5922023,23.8679271 10.748435,24.0665657 C10.9046677,24.2652044 11.0530865,24.4102754 11.1936959,24.5017831 C11.3343053,24.5932908 11.468217,24.6468555 11.595435,24.6624788 C11.7226531,24.6781021 11.8487533,24.6859136 11.9737394,24.6859136 L12.1880003,24.6859136 L12.1880003,26.8017397 L11.9737394,26.8017397 Z M5.75347839,23.3601744 L4.26704357,21.8737396 L5.75347839,20.3873048 L7.2399132,21.8737396 L5.75347839,23.3601744 Z" id="path-3"/>
    </defs>
    <g stroke="none" fill="none" fill-rule="evenodd">
        <g xmlns="http://www.w3.org/2000/svg" transform="translate(1)">
            <path d="M148.498888,44.000001 L4.28183077,44.000001 L0,44.000001 L0,1.47572928e-14 C0,-7.10542905e-16 1.91840295,1.47572928e-14 4.28183077,1.47572928e-14 L148.500003,-7.10542905e-16 C148.500003,-7.10542905e-16 148.498888,1.98073706 148.498888,4.41635269 L148.500003,39.5894062 C148.500003,42.0261734 148.498888,44.000001 148.498888,44.000001 Z" id="Button-Background" fill="#492F8C"/>
            <polygon fill="url(#linearGradient-1)" points="-6.39488462e-14 0 113.300002 0 70.1953517 44.000001 -6.39488462e-14 44.000001"/>
            <g id="Content" transform="translate(8.800000, 5.500000)">
                <g transform="translate(91.300002, 11.000000)">
                    <g transform="translate(33.000001, 4.400000)">
                        <path d="M0.0113189481,0.782818758 L0.0113189481,4.48692293 C0.0113189481,4.552289 0.00712674508,4.61676186 0,4.68034153 C5.68085427,4.82252287 7.5068102,0.621798994 7.5068102,0.621798994 C4.70197487,-0.477487725 1.92338273,0.0766216392 0.0113189481,0.782818758" id="Fill-1" fill="#FFFFFF"/>
                        <path d="M0,1.27741938 C1.88314067,1.57917761 6.00304569,2.46612424 7.5068102,5.81459325 C7.5068102,5.81459325 3.82173559,7.93802859 0.00304422426,5.20191277 L0,1.27741938 Z" id="Fill-2" fill="#FFA100"/>
                    </g>
                    <path d="M11.1987386,13.1608433 C10.5933148,12.1620734 9.98822064,11.1631227 9.38129028,10.1651665 C9.34894514,10.1120049 9.34112958,10.0662117 9.36132763,10.0066761 C9.95479263,8.25582264 10.5465156,6.50442672 11.1386623,4.7531664 C11.1456775,4.7325075 11.154623,4.71248147 11.1685121,4.67749243 C11.8442759,5.96327191 12.5131188,7.2359418 13.1819145,8.50852128 C13.1894005,8.50919936 13.1968865,8.50978703 13.2043725,8.51046512 C14.1616379,5.69036642 15.1189032,2.87022253 16.076969,0.0478183572 L16.171462,0.0478183572 C17.0396959,0.0478183572 17.9079298,0.0487676723 18.7761636,0.0461005489 C18.8506469,0.0458745215 18.8817679,0.0663073987 18.9036609,0.135923839 C19.5635582,2.23115265 20.2259037,4.32565818 20.888061,6.42025411 C21.1002112,7.09137467 21.3126438,7.76240483 21.5251236,8.43348018 C21.5327979,8.45761991 21.5416964,8.48139799 21.5563859,8.52389114 C21.5774785,8.48374868 21.5926859,8.45856922 21.6044563,8.43203361 C22.8331949,5.66808012 24.0619805,2.90417184 25.2887416,0.139404661 C25.3197684,0.0694265768 25.3562097,0.0455128777 25.4372373,0.045692683 C26.5771798,0.0488128778 27.7171222,0.0478183572 28.8571117,0.0478183572 L28.9639401,0.0478183572 C28.9541,0.0767950702 28.9477911,0.100166304 28.9384689,0.122316989 C27.9294136,2.52620882 26.9202171,4.92996504 25.9109264,7.33372125 C25.1077595,9.24668157 24.3044513,11.1595967 23.5017552,13.0728282 C23.4900789,13.1006748 23.4860299,13.1314597 23.4783556,13.1608433 L19.86361,13.1608433 C19.8580072,13.133494 19.8550882,13.1052858 19.8464722,13.0788406 C19.0387384,10.6017611 18.2305807,8.12481716 17.4221877,5.64791848 C17.4142309,5.62364314 17.4028842,5.60036231 17.3859819,5.55922533 C17.3675729,5.60456642 17.3558496,5.62983629 17.3469041,5.65596505 C16.5026819,8.12495278 15.658648,10.5938953 14.8152262,13.0630638 C14.8045386,13.094346 14.8020904,13.1282049 14.7957814,13.1608433 L11.1987386,13.1608433 Z" id="Fill-1" fill="#FFFFFF"/>
                    <path d="M3.47267183,2.58979937 L3.47267183,6.11406383 C3.503887,6.11564602 3.5270512,6.11781589 3.55021541,6.11781589 C3.98412048,6.11772548 4.4184022,6.1270378 4.85183645,6.11338575 C5.11883684,6.10502274 5.38805008,6.07844191 5.65029522,6.03029808 C6.24380729,5.92139807 6.65285322,5.59347752 6.83237579,5.0308049 C6.96834778,4.60456243 6.98153066,4.16973091 6.85558707,3.74000762 C6.7072326,3.23406788 6.37935555,2.87491034 5.84493102,2.72631992 C5.603496,2.65914458 5.34967848,2.61027745 5.09939209,2.59983499 C4.5777738,2.57813636 4.05479013,2.58749389 3.53237144,2.58437282 C3.51504537,2.5842843 3.49767222,2.58744869 3.47267183,2.58979937 L3.47267183,2.58979937 Z M1.88326852e-05,13.1608297 C0.000913385234,13.1211845 0.00265540862,13.0815393 0.00265540862,13.0418941 C0.00279665376,8.75221046 0.00279665376,4.46252681 0.00279665376,0.172843154 L0.00279665376,0.0504267134 C0.0331643587,0.0487541106 0.0559519078,0.0463582202 0.078739457,0.0463582202 C1.97448463,0.0464486311 3.87022981,0.0422897269 5.76597499,0.0491157545 C6.55727734,0.0519184943 7.32904078,0.171034935 8.05602951,0.49136097 C8.73899684,0.792339058 9.28264938,1.24891441 9.69955795,1.84775141 C9.73091437,1.89282127 9.73416301,1.93065826 9.71716651,1.98083634 C8.99742837,4.10653365 8.27872602,6.2325474 7.56171861,8.35910361 C7.54185012,8.41800635 7.50894001,8.44467758 7.44891082,8.4596858 C6.94645478,8.58544745 6.4345824,8.64575156 5.91673063,8.64977485 C5.13719871,8.65583238 4.35761971,8.65212553 3.5780407,8.65257758 L3.4719656,8.65257758 C3.46909362,8.68842553 3.46471502,8.71803512 3.46471502,8.74768992 C3.46438544,10.1908297 3.46438544,11.6339694 3.46480918,13.0771092 C3.46480918,13.105001 3.4701765,13.132938 3.47304848,13.1608297 L1.88326852e-05,13.1608297 Z" id="Fill-3" fill="#FFFFFF"/>
                    <path d="M32.4976534,13.1608511 C32.2138919,12.4019789 31.9291888,11.6434761 31.648111,10.8836624 C31.6240993,10.8187474 31.5880818,10.8080789 31.5246156,10.8081241 C29.9656459,10.8096159 28.4065821,10.8092994 26.8476124,10.8092994 L26.7187498,10.8092994 C26.7293431,10.7768419 26.7359817,10.75112 26.7460101,10.7267542 C27.0724276,9.93479939 27.4000692,9.14329664 27.7239914,8.35043772 C27.7503101,8.28606511 27.783126,8.26748566 27.8526657,8.26766648 C28.7886502,8.26988155 29.7246347,8.26911306 30.6606191,8.26911306 L30.7870806,8.26911306 C30.7369386,8.13376785 30.6918814,8.01180346 30.6465417,7.88988428 C30.2250662,6.75757741 29.8029786,5.62545135 29.3840455,4.49228558 C29.3671432,4.44649243 29.363,4.3843801 29.3810323,4.34044037 C29.9568887,2.93427869 30.5362292,1.52938277 31.115146,0.124351236 C31.122679,0.106088221 31.1313892,0.0882772622 31.1448074,0.0588484944 C31.2018234,0.203144388 31.2552141,0.337540281 31.3080397,0.472162202 C32.5658277,3.67872255 33.8234744,6.88532809 35.0813095,10.0918432 C35.4707694,11.0847364 35.8607002,12.077494 36.2509134,13.0701611 C36.2609418,13.0957926 36.2765729,13.1193447 36.2896146,13.143846 C36.2630605,13.1494967 36.2364593,13.16012 36.2099052,13.16012 C34.9724566,13.1608511 33.735055,13.1608511 32.4976534,13.1608511" id="Fill-6" fill="#FFFFFF"/>
                </g>
                <g fill-rule="nonzero">
                    <use xmlns:xlink="http://www.w3.org/1999/xlink" fill="#000000" xlink:href="#path-2"/>
                    <use xmlns:xlink="http://www.w3.org/1999/xlink" fill="#FFFFFF" xlink:href="#path-2"/>
                </g>
                <g fill-rule="nonzero" fill="#FFFFFF">
                    <use xmlns:xlink="http://www.w3.org/1999/xlink" xlink:href="#path-3"/>
                    <use xmlns:xlink="http://www.w3.org/1999/xlink" xlink:href="#path-3"/>
                </g>
            </g>
        </g>
    </g>
</svg>
